<svg width="812" height="191" viewBox="0 0 812 191" fill="none" xmlns="http://www.w3.org/2000/svg">
    <path d="M92.3691 36.6095C107.369 38.6095 119.369 54.6095 109.369 68.6095C106.369 73.6095 102.369 73.6095 97.3691 76.6095C120.369 78.6095 122.369 107.609 104.369 117.609L94.3691 120.609H45.3691V36.6095C60.3691 37.6095 78.3691 34.6095 92.3691 36.6095ZM70.3691 70.6095C76.3691 69.6095 89.3691 71.6095 89.3691 62.6095C89.3691 53.6095 76.3691 53.6095 70.3691 54.6095V70.6095ZM84.3691 85.6095H70.3691V102.609H85.3691L89.3691 99.6095C94.3691 95.6095 90.3691 86.6095 84.3691 85.6095ZM351.369 36.6095C366.369 38.6095 378.369 54.6095 368.369 68.6095C365.369 73.6095 361.369 73.6095 356.369 76.6095C379.369 78.6095 381.369 107.609 363.369 117.609L353.369 120.609H305.369V36.6095C319.369 37.6095 337.369 34.6095 351.369 36.6095ZM329.369 70.6095C335.369 69.6095 348.369 71.6095 348.369 62.6095C348.369 53.6095 335.369 53.6095 329.369 54.6095V70.6095ZM343.369 85.6095H329.369V102.609H344.369L348.369 99.6095C353.369 95.6095 349.369 86.6095 343.369 85.6095Z" fill="#FEFEFE"/>
    <path d="M44.3693 122.609C38.3693 119.609 28.3693 130.609 27.3693 135.609C27.3693 143.609 32.3693 145.609 36.3693 151.609C40.3693 159.609 42.3693 171.609 38.3693 180.609C36.3693 184.609 22.3693 193.609 18.3693 188.609C16.3693 184.609 27.3693 180.609 29.3693 177.609C35.3693 163.609 15.3693 154.609 14.3693 143.609C13.3693 140.609 15.3693 133.609 16.3693 130.609C17.3693 126.609 21.3693 124.609 21.3693 120.609C4.36934 120.609 -1.63066 112.609 0.369337 96.6094C1.36934 78.6094 18.3693 66.6094 29.3693 54.6094C36.3693 45.6094 29.3693 44.6094 26.3693 36.6094C22.3693 27.6094 25.3693 17.6094 33.3693 11.6094L40.3693 7.60936C41.3693 6.60936 47.3693 -2.39064 50.3693 0.609364V9.60936L55.3693 11.6094L65.3693 18.6094C68.3693 19.6094 73.3693 15.6094 76.3693 17.6094C74.3693 24.6094 70.3693 25.6094 73.3693 33.6094H44.3693V121.609V122.609ZM564.369 36.6094C596.369 39.6094 607.369 78.6094 592.369 103.609C587.369 111.609 574.369 121.609 565.369 121.609H523.369V36.6094C536.369 37.6094 551.369 34.6094 564.369 36.6094ZM547.369 56.6094V101.609H561.369L569.369 97.6094C575.369 91.6094 576.369 74.6094 573.369 66.6094C569.369 54.6094 557.369 55.6094 547.369 56.6094ZM182.369 57.6094V96.6094C182.369 100.609 187.369 103.609 191.369 103.609C195.369 103.609 200.369 98.6094 200.369 95.6094V57.6094H223.369V121.609H201.369V111.609C191.369 126.609 168.369 126.609 160.369 109.609L158.369 98.6094V58.6094L159.369 57.6094H182.369ZM674.369 89.6094C674.369 98.6267 670.787 107.275 664.411 113.651C658.035 120.027 649.387 123.609 640.369 123.609C631.352 123.609 622.704 120.027 616.328 113.651C609.951 107.275 606.369 98.6267 606.369 89.6094C606.369 80.592 609.951 71.944 616.328 65.5677C622.704 59.1915 631.352 55.6094 640.369 55.6094C649.387 55.6094 658.035 59.1915 664.411 65.5677C670.787 71.944 674.369 80.592 674.369 89.6094ZM639.369 73.6094C627.369 74.6094 628.369 105.609 640.369 105.609C653.369 105.609 652.369 71.6094 639.369 73.6094ZM446.369 95.6094H404.369C404.369 104.609 413.369 108.609 421.369 103.609L424.369 100.609H446.369C441.369 127.609 396.369 129.609 384.369 106.609C380.369 98.6094 379.369 85.6094 381.369 76.6094L383.369 75.6094V73.6094L384.369 72.6094C392.369 60.6094 402.369 55.6094 416.369 56.6094C437.369 57.6094 447.369 75.6094 446.369 94.6094V95.6094ZM424.369 82.6094C423.369 70.6094 404.369 69.6094 405.369 82.6094H424.369Z" fill="#FEFEFE"/>
    <path d="M297.369 95.6094H255.369C255.369 104.609 264.369 108.609 272.369 103.609L275.369 100.609H297.369C293.369 119.609 275.369 123.609 257.369 121.609C221.369 117.609 222.369 53.6094 267.369 56.6094C288.369 57.6094 298.369 75.6094 297.369 94.6094V95.6094ZM275.369 82.6094C274.369 70.6094 255.369 69.6094 256.369 82.6094H275.369ZM810.369 78.6094H789.369L785.369 73.6094C780.369 69.6094 770.369 73.6094 774.369 78.6094C777.369 80.6094 796.369 82.6094 802.369 85.6094C817.369 92.6094 813.369 111.609 799.369 118.609C784.369 126.609 749.369 122.609 748.369 99.6094H772.369C772.369 100.609 771.369 104.609 777.369 105.609C781.369 106.609 788.369 106.609 787.369 101.609C786.369 97.6094 768.369 96.6094 763.369 94.6094C751.369 90.6094 745.369 78.6094 753.369 66.6094C763.369 49.6094 810.369 52.6094 810.369 77.6094V78.6094ZM124.369 36.6094H148.369V121.609H124.369V36.6094ZM454.369 36.6094H478.369V121.609H454.369V36.6094ZM489.369 36.6094H513.369V121.609H489.369V36.6094ZM682.369 36.6094H706.369V121.609H682.369V36.6094ZM716.369 36.6094H740.369V121.609H716.369V36.6094Z" fill="#FEFEFE"/>
</svg>
